<?xml version="1.0" encoding="utf-8"?>
<!-- Generator: Adobe Illustrator 23.0.1, SVG Export Plug-In . SVG Version: 6.00 Build 0)  -->
<svg version="1.1" id="Layer_1" xmlns="http://www.w3.org/2000/svg" xmlns:xlink="http://www.w3.org/1999/xlink" x="0px" y="0px"
	 viewBox="0 0 200 200" style="enable-background:new 0 0 200 200;" xml:space="preserve">
<style type="text/css">
	.st0{fill:#FF7BAC;}
	.st1{font-family:'Aesthetikos';}
	.st2{font-size:50.3049px;}
	.st3{font-size:64.7868px;}
</style>
<g>
	<ellipse cx="100" cy="95" rx="89.5" ry="83.5"/>
	<path class="st0" d="M100,12c49.07,0,89,37.23,89,83s-39.93,83-89,83s-89-37.23-89-83S50.93,12,100,12 M100,11
		c-49.71,0-90,37.61-90,84s40.29,84,90,84s90-37.61,90-84S149.71,11,100,11L100,11z"/>
</g>
<text transform="matrix(1.6226 0 0 1 51.0005 133.1563)" class="st0 st1 st2">Pre-loved </text>
<text transform="matrix(1.2282 0 0 1 25 77.292)" class="st0 st1 st3">Celyn’s</text>
</svg>
